<svg width="126" height="21" viewBox="0 0 126 21" fill="none" xmlns="http://www.w3.org/2000/svg">
<path d="M7.23241 13.1695V7.89824H8.6427V16.3637H7.32281V15.2117C6.76231 16.1368 5.82211 16.5906 4.64686 16.5906C2.60374 16.5906 1.69971 15.2641 1.69971 13.6932V7.89824H3.11V13.2568C3.11 14.6881 3.74283 15.4386 4.9904 15.4386C6.31029 15.4386 7.23241 14.4612 7.23241 13.1695Z" fill="black"/>
<path d="M16.3284 7.67133C18.3715 7.67133 19.2756 8.99788 19.2756 10.5688V16.3637H17.8653V11.0052C17.8653 9.57388 17.2325 8.82333 15.9849 8.82333C14.665 8.82333 13.7429 9.80079 13.7429 11.0924V16.3637H12.3326V7.89824H13.6525V9.05024C14.213 8.12515 15.1532 7.67133 16.3284 7.67133Z" fill="black"/>
<path d="M23.2547 10.9702H29.1852V12.2968H23.2547V10.9702Z" fill="black"/>
<path d="M40.8668 9.2597L39.9447 10.0626C38.9141 9.0677 38.1728 8.78842 37.2687 8.78842C35.2798 8.78842 34.412 10.4466 34.412 12.1397C34.412 13.7979 35.2979 15.4386 37.3049 15.4386C38.2993 15.4386 38.9864 15.107 40.1074 14.0073L41.0114 14.7753C39.8181 16.1542 38.7694 16.5906 37.323 16.5906C34.6109 16.5906 32.9655 14.8277 32.9655 12.1397C32.9655 9.43424 34.647 7.65388 37.2868 7.65388C38.7875 7.65388 39.8 8.12515 40.8668 9.2597Z" fill="black"/>
<path d="M50.6679 13.9026L51.4997 14.7404C50.0713 16.1368 48.878 16.5906 47.4315 16.5906C44.7194 16.5906 43.1102 14.8452 43.1102 12.2095C43.1102 9.53897 44.7917 7.65388 47.2868 7.65388C49.8362 7.65388 51.2827 9.24224 51.2827 11.7033C51.2827 11.8604 51.2646 12.1921 51.2465 12.3317H44.5205C44.5928 14.0422 45.4788 15.4561 47.4496 15.4561C48.6067 15.4561 49.4565 15.0197 50.6679 13.9026ZM47.2868 8.78842C45.8404 8.78842 44.8279 9.6437 44.5747 11.267H49.8905C49.8181 9.80079 48.896 8.78842 47.2868 8.78842Z" fill="black"/>
<path d="M58.2813 7.67133C60.3245 7.67133 61.2285 8.99788 61.2285 10.5688V16.3637H59.8182V11.0052C59.8182 9.57388 59.1854 8.82333 57.9378 8.82333C56.6179 8.82333 55.6958 9.80079 55.6958 11.0924V16.3637H54.2855V7.89824H55.6054V9.05024C56.1659 8.12515 57.1061 7.67133 58.2813 7.67133Z" fill="black"/>
<path d="M68.1548 7.61897C69.6013 7.61897 70.6319 7.95061 71.8252 8.85824L71.0477 9.78333C69.8544 8.92806 69.1673 8.75351 68.1729 8.75351C66.8711 8.75351 66.0936 9.34697 66.0936 10.0975C66.0936 10.8655 66.9073 11.0575 68.5707 11.3892C70.9031 11.843 71.9699 12.5062 71.9699 13.9899C71.9699 15.5608 70.5415 16.6255 68.408 16.6255C66.8169 16.6255 65.6958 16.2415 64.2675 15.0721L65.0992 14.1644C66.4372 15.2117 67.3231 15.5084 68.408 15.5084C69.6555 15.5084 70.5776 14.9499 70.5776 14.0597C70.5776 13.0822 69.4566 12.803 67.9921 12.5062C65.6235 12.0524 64.7376 11.5288 64.7376 10.1499C64.7376 8.66624 66.1479 7.61897 68.1548 7.61897Z" fill="black"/>
<path d="M78.6611 7.65388C81.1924 7.65388 82.8739 9.46915 82.8739 12.1397C82.8739 14.7753 81.1924 16.5906 78.6611 16.5906C76.1298 16.5906 74.4664 14.7753 74.4664 12.1397C74.4664 9.46915 76.1298 7.65388 78.6611 7.65388ZM78.6611 8.78842C76.9073 8.78842 75.9129 10.1499 75.9129 12.1397C75.9129 14.0946 76.9073 15.4561 78.6611 15.4561C80.415 15.4561 81.4275 14.0946 81.4275 12.1397C81.4275 10.1499 80.415 8.78842 78.6611 8.78842Z" fill="black"/>
<path d="M90.6139 7.75861C91.7891 7.75861 92.8559 8.1077 93.5972 8.42188L93.1994 9.55642C92.4039 9.24224 91.5179 8.96297 90.4873 8.96297C89.0409 8.96297 87.4679 9.99279 87.4679 11.8255V16.3637H86.0576V7.89824H87.3775V9.48661C87.9741 8.52661 89.1313 7.75861 90.6139 7.75861Z" fill="black"/>
<path d="M99.6376 8.64879C101.265 8.64879 102.585 9.92297 102.585 11.5113C102.585 13.0648 101.265 14.3739 99.6376 14.3739C98.0103 14.3739 96.6904 13.0648 96.6904 11.5113C96.6904 9.92297 98.0103 8.64879 99.6376 8.64879Z" fill="black"/>
<path d="M109.276 4.21533H111.301V6.01315H109.276V4.21533ZM111.175 7.89824V15.2466H114.357V16.3637H106.329V15.2466H109.764V9.01533H106.962V7.89824H111.175Z" fill="black"/>
<path d="M124.646 14.7404L125.044 15.8052C124.14 16.2241 123.037 16.5208 122.205 16.5208C120.144 16.5208 119.204 15.5957 119.204 14.2168V9.01533H115.967V7.89824H119.204V4.8786H120.614V7.89824H124.809V9.01533H120.614V13.9724C120.614 14.8975 121.211 15.3513 122.277 15.3513C122.983 15.3513 123.778 15.0895 124.646 14.7404Z" fill="black"/>
</svg>
